<?xml version="1.0" encoding="utf-8"?>
<!-- Generator: Adobe Illustrator 25.2.0, SVG Export Plug-In . SVG Version: 6.00 Build 0)  -->
<svg version="1.1" id="Capa_1" xmlns="http://www.w3.org/2000/svg" xmlns:xlink="http://www.w3.org/1999/xlink" x="0px" y="0px"
	 viewBox="0 0 85 85" style="enable-background:new 0 0 85 85;" xml:space="preserve">
<style type="text/css">
	.st0{fill:#FFC700;}
</style>
<g>
	<path class="st0" d="M60.8,52.4c-3.1-2.6-6.2-4.2-9.2-1.6l-1.8,1.6c-1.3,1.1-3.8,6.5-13.2-4.4c-9.5-10.9-3.8-12.6-2.5-13.7l1.8-1.6
		c3-2.6,1.9-5.9-0.3-9.3l-1.3-2.1c-2.2-3.4-4.5-5.6-7.6-3l-1.6,1.4c-1.3,1-5,4.1-5.9,10.1c-1.1,7.2,2.3,15.4,10.2,24.4
		c7.8,9,15.5,13.6,22.8,13.5c6-0.1,9.7-3.3,10.8-4.5l1.6-1.4c3-2.6,1.1-5.3-1.9-7.9L60.8,52.4z"/>
</g>
</svg>
