<?xml version="1.0" encoding="utf-8"?>
<!-- Generator: Adobe Illustrator 25.2.0, SVG Export Plug-In . SVG Version: 6.00 Build 0)  -->
<svg version="1.1" id="Capa_1" xmlns="http://www.w3.org/2000/svg" xmlns:xlink="http://www.w3.org/1999/xlink" x="0px" y="0px"
	 viewBox="0 0 85 85" style="enable-background:new 0 0 85 85;" xml:space="preserve">
<style type="text/css">
	.st0{fill:#FFC700;}
</style>
<g>
	<path class="st0" d="M67.4,40.5c-0.2-0.7-0.3-1.3-0.4-2c-0.2-1-0.4-2.1-0.7-3.1C63.4,25.6,55.1,18.7,45,17.8
		c-0.1,0-0.2-0.1-0.4-0.1l-0.1-0.1h-3.8l-0.1,0c-0.7,0.2-1.3,0.3-2,0.4c-1,0.2-2.1,0.4-3.1,0.7C25.7,21.6,18.8,29.9,17.9,40
		c0,0.1-0.1,0.2-0.1,0.4l-0.1,0.1v3.8l0,0.1c0.2,0.7,0.3,1.3,0.4,2c0.2,1,0.4,2.1,0.7,3.1c2.9,9.7,11.2,16.6,21.3,17.6
		c0.1,0,0.2,0.1,0.4,0.1l0.1,0.1h3.8l0.1,0c1.7-0.3,3.4-0.6,5.2-1.1c9.7-2.9,16.6-11.2,17.6-21.3c0-0.1,0.1-0.2,0.1-0.4l0.1-0.1
		v-3.8L67.4,40.5z M63.1,44.5c-0.3,8.4-7.8,17.9-18.6,18.7v-2.8h-3.9v2.7c-9.5-0.5-18-9-18.7-18.6h2.8v-3.9h-2.8
		c0.5-8.4,7.9-17.7,18.6-18.7v2.8h4v-2.8c9.6,0.7,17.8,8.9,18.7,18.7h-2.8v3.9H63.1z"/>
	<path class="st0" d="M52.6,35.4c-0.4,0-0.7,0.2-1,0.4c-0.1,0.1-0.1,0.1-0.2,0.1c-1.2,0.7-2.3,1.3-3.5,2c-0.9,0.5-1.8,1.1-2.8,1.6
		l-0.4,0c-0.5,0-1-0.1-1.5-0.2c-0.5-0.1-1-0.2-1.6-0.2c-0.5,0-1.1,0-1.4-0.1c-2.4-1.3-4.8-2.7-7.2-4.1c-0.8-0.4-1.6-0.5-2.3-0.2
		c-0.6,0.3-0.9,0.9-1,1.5c-0.1,1.2,0.7,1.7,1.3,2.1c2.5,1.4,4.9,2.8,7.3,4.2c0.3,0.1,0.5,0.4,0.5,0.7c0.5,1.7,1.8,2.7,3.4,2.7
		c0.2,0,0.3,0,0.5,0c1.8-0.2,3-1.7,2.9-3.6c0-0.3,0-0.4,0.5-0.7l4.8-2.7c0.8-0.4,1.6-0.9,2.4-1.4l0.1-0.1c0.2-0.2,0.3-0.6,0.4-0.9
		c0-0.1,0-0.2,0.1-0.3l0.2-0.5l-0.5-0.2C53.5,35.5,53,35.4,52.6,35.4z"/>
</g>
</svg>
