<?xml version="1.0" encoding="utf-8"?>
<!-- Generator: Adobe Illustrator 25.2.0, SVG Export Plug-In . SVG Version: 6.00 Build 0)  -->
<svg version="1.1" id="Шар_1" xmlns="http://www.w3.org/2000/svg" xmlns:xlink="http://www.w3.org/1999/xlink" x="0px" y="0px"
	 viewBox="0 0 207 36" style="enable-background:new 0 0 207 36;" xml:space="preserve">
<style type="text/css">
	.st0{fill:url(#SVGID_1_);}
	.st1{fill:url(#SVGID_2_);}
	.st2{fill:url(#SVGID_3_);}
	.st3{fill:url(#SVGID_4_);}
	.st4{fill:url(#SVGID_5_);}
	.st5{fill:url(#SVGID_6_);}
	.st6{fill:url(#SVGID_7_);}
</style>
<g>
	
		<linearGradient id="SVGID_1_" gradientUnits="userSpaceOnUse" x1="28.0023" y1="27.7961" x2="28.0023" y2="0.8818" gradientTransform="matrix(1 0 0 -1 0 36.8615)">
		<stop  offset="0" style="stop-color:#FFFFFF"/>
		<stop  offset="1" style="stop-color:#CCCCCC"/>
	</linearGradient>
	<path class="st0" d="M54.7,15.4c-1.9-4.2-5.3-6.3-10.2-6.3h-0.6c-2.9,0-5.4,0.9-7.5,2.6c-1.6,1.6-2.8,3.5-3.4,5.7c0-0.3,0-0.6,0-1
		v-0.6c0-0.7-0.1-1.5-0.4-2.3c-1.2-3-3.8-4.5-7.9-4.5h-7.8v16c-0.2-0.7-0.6-1.5-1.2-2.3c-0.9-0.9-1.8-1.3-2.6-1.4v-0.1
		c0,0,0.2,0,0.4-0.1c1.3-0.8,2-2.4,2-4.9v-0.5c0-2-0.7-3.6-2-4.9c-1.5-1.2-3.2-1.8-5-1.8H0V36h8.6c0.8,0,1.8-0.1,2.8-0.4
		c3-1,4.8-2.7,5.5-5.1V36h4.3V24.3h0.1c4.4,7.4,6.7,11.3,6.9,11.7H33l-6.9-11.8c0.8-0.1,1.5-0.2,2.1-0.4c2.2-0.8,3.6-2.2,4.3-4.2
		c-0.1,0.8-0.2,1.7-0.2,2.6v0.5c0,1.9,0.3,3.9,0.9,5.8c1.8,5,5.4,7.5,10.7,7.5h0.3c3.5,0,6.3-1.1,8.4-3.3c2.2-2.6,3.3-6,3.3-10V22
		C56,19.6,55.6,17.4,54.7,15.4z M4.3,13.4h4c0.4,0,0.8,0.1,1.1,0.1c1.2,0.4,1.8,1.3,1.8,2.5c0,1.8-1,2.8-2.9,2.8H4.3V13.4z M12.8,29
		c-0.6,1.8-1.9,2.7-3.9,2.7H4.3v-7.5h4.4c0.5,0,1,0.1,1.5,0.2c1.8,0.6,2.7,1.8,2.7,3.6C12.9,28,12.9,28.4,12.8,29z M28.6,17.8
		c-0.6,1.4-1.7,2-3.4,2h-4v-6.4h4c0.4,0,0.7,0,1.1,0.1c1.6,0.4,2.5,1.5,2.5,3.1C28.8,16.8,28.7,17.2,28.6,17.8z M51.2,26
		c-1.2,3.8-3.6,5.7-7,5.7c-1.8,0-3.4-0.6-4.7-1.7c-1.9-1.9-2.9-4.4-2.9-7.5c0-1.2,0.2-2.5,0.6-3.7c1.3-3.6,3.6-5.4,6.9-5.4
		c1.6,0,3.1,0.4,4.3,1.3c2.2,1.8,3.3,4.4,3.3,7.8C51.7,23.7,51.5,24.8,51.2,26z"/>
	<g>
		
			<linearGradient id="SVGID_2_" gradientUnits="userSpaceOnUse" x1="61.3912" y1="0.8829" x2="61.3912" y2="27.7967" gradientTransform="matrix(1 0 0 -1 0 36.8615)">
			<stop  offset="0" style="stop-color:#FFC700"/>
			<stop  offset="1" style="stop-color:#FFFF00"/>
		</linearGradient>
		<path class="st1" d="M57.7,30.6c3.2,0.7,5.8,1.1,7.6,1.1c1.4,0,2.4-0.5,3.1-1.6c0.2-0.4,0.3-0.8,0.3-1.3v-0.1c0-1.5-1-2.8-3.1-3.8
			c-3.5-1.1-5.8-2.2-6.7-3.3c-0.9-1.1-1.3-2.4-1.3-4.1v-0.6c0-5.1,2.4-7.7,7.3-7.7h-6.2L54,36h11c-3.4,0-5.9-0.3-7.3-1L57.7,30.6
			L57.7,30.6z"/>
		
			<linearGradient id="SVGID_3_" gradientUnits="userSpaceOnUse" x1="69.1637" y1="0.8829" x2="69.1637" y2="27.7972" gradientTransform="matrix(1 0 0 -1 0 36.8615)">
			<stop  offset="0" style="stop-color:#FFC700"/>
			<stop  offset="1" style="stop-color:#FFFF00"/>
		</linearGradient>
		<path class="st2" d="M65.8,9.1c3,0,5.3,0.3,7,1v4.3c-2.3-0.7-4.8-1.1-7.6-1.1c-1.7,0-2.8,0.7-3.3,2.2c-0.1,0.1-0.1,0.4-0.1,0.7
			v0.2c0,1.6,1.1,2.9,3.4,3.9c3.3,1.1,5.6,2.7,6.8,4.9c0.5,1,0.8,2,0.8,3v0.9c0,3-0.9,5-2.6,6c-1.2,0.6-2.6,0.9-4.2,0.9h5.9
			l4.8-26.9L65.8,9.1L65.8,9.1z"/>
	</g>
	
		<linearGradient id="SVGID_4_" gradientUnits="userSpaceOnUse" x1="103.3971" y1="27.7412" x2="103.3971" y2="0.8824" gradientTransform="matrix(1 0 0 -1 0 36.8615)">
		<stop  offset="0" style="stop-color:#FFFFFF"/>
		<stop  offset="1" style="stop-color:#CCCCCC"/>
	</linearGradient>
	<path class="st3" d="M130.3,16.5v-0.6c0-0.7-0.1-1.5-0.4-2.3c-1.2-3-3.8-4.5-7.9-4.5h-7.8h0h-4.3v16.8c0,0.9-0.1,1.7-0.4,2.4
		c-0.8,2.2-2.5,3.3-4.9,3.3c-0.7,0-1.6-0.2-2.5-0.5c-1.9-1.1-2.9-2.9-2.9-5.3V9.1h-4.3h0h-4.3v10.7h-9.7V9.1h-4.3V36h4.3V24.2h9.7
		V36h4.3v-7.4c0,0.8,0.2,1.7,0.6,2.7c1.5,3.2,4.4,4.8,8.7,4.8h0.6c3.1,0,5.6-0.9,7.4-2.8c1.3-1.5,1.9-3.1,1.9-4.7V36h4.3V24.3h0.1
		c4.4,7.4,6.7,11.3,6.9,11.7h4.9l-6.9-11.8c0.8-0.1,1.5-0.2,2.1-0.4C128.6,22.5,130.3,20.1,130.3,16.5z M122.4,19.9h-4v-6.4h4
		c0.4,0,0.7,0,1.1,0.1c1.7,0.4,2.5,1.5,2.5,3.1c0,0.2-0.1,0.6-0.2,1.2C125.2,19.2,124.1,19.9,122.4,19.9z"/>
	
		<linearGradient id="SVGID_5_" gradientUnits="userSpaceOnUse" x1="140.9698" y1="27.7412" x2="140.9698" y2="0.8835" gradientTransform="matrix(1 0 0 -1 0 36.8615)">
		<stop  offset="0" style="stop-color:#FFFFFF"/>
		<stop  offset="1" style="stop-color:#CCCCCC"/>
	</linearGradient>
	<path class="st4" d="M143.1,9.1c0.1,0,0.5,1.2,1.2,3.7c3.9,12.2,6.4,19.9,7.4,23.2h-0.1c-2.2,0-3.7-0.1-4.2-0.1
		c0-0.1-0.8-2.2-2.1-6.4h-8.6c-0.7,2.2-1.4,4.4-2.1,6.5h-4.3v-0.1c4.4-13.7,7.2-22.6,8.6-26.8L143.1,9.1L143.1,9.1z M140.9,14.1
		c0,0.2-1.1,3.9-3.2,11.1h6.4c-2.1-7.2-3.1-10.9-3.2-11.1H140.9z"/>
	<g>
		
			<linearGradient id="SVGID_6_" gradientUnits="userSpaceOnUse" x1="179.3429" y1="18.6417" x2="179.3429" y2="36.8412" gradientTransform="matrix(1 0 0 -1 0 36.8615)">
			<stop  offset="0" style="stop-color:#FFC700"/>
			<stop  offset="1" style="stop-color:#FFFF00"/>
		</linearGradient>
		<path class="st5" d="M151.7,0v18.2H207V0H151.7z M163.9,14.3h-2l-3-4.5h0c-0.4,0.5-0.7,0.8-0.7,0.9v3.6h-1.7V3.4h1.7v4.7
			c2.3-2.9,3.5-4.5,3.7-4.7h2L160,8.6v0L163.9,14.3z M166.8,14.3h-1.7V3.4h1.7V14.3z M174.4,5.2H170V8h4.3v1.7H170v2.8h4.3v1.7h-6.1
			V3.4h6.1V5.2z M179.6,14.3h-1.7c0,0-0.2-0.5-0.4-1.5c-1.5-5.7-2.3-8.8-2.4-9.3h1.7c0,0,0.1,0.4,0.3,1.1c1,3.8,1.6,5.9,1.6,6.2h0
			c0.1-0.3,0.7-2.8,1.9-7.3h1.7C182.3,4,181.4,7.6,179.6,14.3z M185.1,13.4c0,0.5-0.3,0.8-0.8,0.9h-0.2c-0.4,0-0.7-0.2-0.9-0.7
			c0-0.1,0-0.2,0-0.2v-0.1c0-0.5,0.3-0.8,0.8-0.9h0.2c0.5,0,0.8,0.2,0.9,0.7C185,13.2,185.1,13.2,185.1,13.4L185.1,13.4L185.1,13.4z
			 M194,11.2c0,0.7-0.3,1.3-0.8,1.9c-0.7,0.8-1.7,1.1-3,1.1H190c-1.7,0-2.9-0.6-3.5-1.9c-0.2-0.4-0.3-0.8-0.3-1.1l0-7.8h1.7v6.8
			c0,1,0.4,1.7,1.2,2.1c0.4,0.1,0.7,0.2,1,0.2c1,0,1.7-0.4,2-1.3c0.1-0.3,0.2-0.6,0.2-1V3.4h1.7L194,11.2L194,11.2z M203.5,14.3
			c-0.9,0-1.5,0-1.7,0c0,0-0.3-0.9-0.9-2.6h-3.5c-0.3,0.9-0.6,1.8-0.9,2.6h-1.7v0c1.8-5.5,2.9-9.1,3.5-10.8h1.7c0,0,0.2,0.5,0.5,1.5
			C202.1,9.9,203.1,13,203.5,14.3L203.5,14.3L203.5,14.3z"/>
		
			<linearGradient id="SVGID_7_" gradientUnits="userSpaceOnUse" x1="199.1588" y1="26.9296" x2="199.1588" y2="31.4055" gradientTransform="matrix(1 0 0 -1 0 36.8615)">
			<stop  offset="0" style="stop-color:#FFC700"/>
			<stop  offset="1" style="stop-color:#FFFF00"/>
		</linearGradient>
		<path class="st6" d="M199.1,5.5c0,0.1-0.4,1.6-1.3,4.5h2.6C199.6,7,199.2,5.6,199.1,5.5L199.1,5.5z"/>
	</g>
</g>
</svg>
