<?xml version="1.0" encoding="utf-8"?>
<!-- Generator: Adobe Illustrator 25.2.0, SVG Export Plug-In . SVG Version: 6.00 Build 0)  -->
<svg version="1.1" id="Шар_1" xmlns="http://www.w3.org/2000/svg" xmlns:xlink="http://www.w3.org/1999/xlink" x="0px" y="0px"
	 viewBox="0 0 14.2 14.2" style="enable-background:new 0 0 14.2 14.2;" xml:space="preserve">
<style type="text/css">
	.st0{fill:url(#SVGID_1_);}
	.st1{fill:url(#SVGID_2_);}
	.st2{fill:url(#SVGID_3_);}
</style>
<g>
	<linearGradient id="SVGID_1_" gradientUnits="userSpaceOnUse" x1="4.8259" y1="4.3935" x2="8.5609" y2="4.3935">
		<stop  offset="0" style="stop-color:#FFC700"/>
		<stop  offset="1" style="stop-color:#FFFF00"/>
	</linearGradient>
	<path class="st0" d="M7,3.3H4.8v2.1H7c1,0,1.5-0.4,1.5-1.1C8.6,3.7,8,3.3,7,3.3z"/>
	<linearGradient id="SVGID_2_" gradientUnits="userSpaceOnUse" x1="4.8259" y1="9.7188" x2="9.2198" y2="9.7188">
		<stop  offset="0" style="stop-color:#FFC700"/>
		<stop  offset="1" style="stop-color:#FFFF00"/>
	</linearGradient>
	<path class="st1" d="M9.2,9.7c0-0.7-0.5-1.1-1.6-1.1H4.8v2.2h2.8C8.7,10.8,9.2,10.5,9.2,9.7z"/>
	<linearGradient id="SVGID_3_" gradientUnits="userSpaceOnUse" x1="7.6622" y1="7.0866" x2="14.1732" y2="7.0866">
		<stop  offset="0" style="stop-color:#FFC700"/>
		<stop  offset="1" style="stop-color:#FFFF00"/>
	</linearGradient>
	<path class="st2" d="M7.7,0c1.9,0,3.3,0.3,4.2,1c1,0.7,1.4,1.6,1.4,2.7c0,0.7-0.2,1.3-0.5,1.8c-0.3,0.5-0.8,1-1.4,1.3
		c0.8,0.3,1.5,0.8,1.9,1.4c0.5,0.6,0.7,1.3,0.7,2.1c0,1.2-0.5,2.2-1.5,2.9c-1,0.7-2.5,1-4.4,1h6.1V0H7.7z"/>
</g>
</svg>
