<?xml version="1.0" encoding="utf-8"?>
<!-- Generator: Adobe Illustrator 25.2.0, SVG Export Plug-In . SVG Version: 6.00 Build 0)  -->
<svg version="1.1" id="Capa_1" xmlns="http://www.w3.org/2000/svg" xmlns:xlink="http://www.w3.org/1999/xlink" x="0px" y="0px"
	 viewBox="0 0 85 85" style="enable-background:new 0 0 85 85;" xml:space="preserve">
<style type="text/css">
	.st0{fill-rule:evenodd;clip-rule:evenodd;fill:#FFC700;}
</style>
<g>
	<path class="st0" d="M66.8,27c-0.1-2.1-1.5-4-3.5-4.1c-2.2-0.2-4.4,0-7,0c0.3,1,0.5,1.9,0.9,2.6c1,1.7,0.8,3.7-0.6,5
		c-1.4,1.3-3.6,1.3-5,0c-1.4-1.2-1.8-3.4-0.6-5c0.7-0.9,0.7-1.7,0.5-2.6c-5.9,0-11.7,0-17.9,0c0.3,1,0.5,1.9,0.9,2.6
		c1,1.7,0.8,3.6-0.6,4.9c-1.4,1.3-3.4,1.4-4.9,0.2c-1.5-1.2-1.9-3.2-1-4.9c0.4-0.8,0.6-1.7,1.1-2.9c-2.2,0-3.8,0.1-5.5,0
		c-3.9-0.3-5.5,2.5-5.5,5.5c0.1,9.9,0,19.9,0,29.8c0,3.5,1.6,5.1,5.1,5.1c12.8,0,25.7,0,38.5,0c3.6,0,5.2-1.6,5.2-5.2
		c0-8.5,0-16.9,0-25.4C66.8,30.7,66.8,28.9,66.8,27z M60.7,59.1c-12.1,0-24.2,0-36.3,0c0-8.4,0-16.8,0-25.2c12.1,0,24.1,0,36.3,0
		C60.7,42.3,60.7,50.7,60.7,59.1z"/>
	<path class="st0" d="M52.3,24.4c0-1.1,0-2.2,0-3.3c0.1-1.2,0.8-2,1.8-2c1,0,1.9,0.7,1.9,1.9c0.1,2.3,0.1,4.5,0,6.8
		c0,1.1-0.7,1.8-1.8,1.9c-1,0.1-1.8-0.8-1.9-1.9c0-0.1,0-0.2,0-0.3C52.3,26.5,52.3,25.5,52.3,24.4C52.3,24.4,52.3,24.4,52.3,24.4z"
		/>
	<path class="st0" d="M33.1,24.5c0,1.1,0,2.3,0,3.4c0,1.1-0.6,1.8-1.7,1.9c-1,0.1-1.9-0.7-1.9-1.9c-0.1-2.3-0.1-4.5,0-6.8
		c0-1.2,0.9-1.9,1.9-1.9c1,0,1.7,0.8,1.8,2C33.1,22.3,33.1,23.4,33.1,24.5C33.1,24.5,33.1,24.5,33.1,24.5z"/>
	<path class="st0" d="M51.1,41.6c0-1.7,0-3.4,0-5.1c1.7,0,3.3,0,5.1,0c0,1.7,0,3.3,0,5.1C54.5,41.6,52.9,41.6,51.1,41.6z"/>
	<path class="st0" d="M34,49.1c-1.8,0-3.4,0-5.1,0c0-1.7,0-3.3,0-5.1c1.7,0,3.4,0,5.1,0C34,45.7,34,47.3,34,49.1z"/>
	<path class="st0" d="M56.2,49.1c-1.7,0-3.4,0-5.1,0c0-1.7,0-3.3,0-5c1.7,0,3.4,0,5.1,0C56.2,45.7,56.2,47.3,56.2,49.1z"/>
	<path class="st0" d="M28.8,56.5c0-1.7,0-3.3,0-5.1c1.7,0,3.4,0,5.1,0c0,1.7,0,3.3,0,5.1C32.3,56.5,30.6,56.5,28.8,56.5z"/>
	<path class="st0" d="M41.3,56.5c-1.7,0-3.3,0-5,0c0-1.7,0-3.4,0-5.1c1.6,0,3.3,0,5,0C41.3,53.1,41.3,54.7,41.3,56.5z"/>
	<path class="st0" d="M36.2,41.6c0-1.7,0-3.3,0-5c1.7,0,3.3,0,5.1,0c0,1.6,0,3.2,0,5C39.7,41.6,38,41.6,36.2,41.6z"/>
	<path class="st0" d="M48.8,41.6c-1.7,0-3.3,0-5,0c0-1.7,0-3.4,0-5.1c1.7,0,3.3,0,5,0C48.8,38.2,48.8,39.9,48.8,41.6z"/>
	<path class="st0" d="M36.2,49.1c0-1.8,0-3.4,0-5.1c1.7,0,3.3,0,5.1,0c0,1.7,0,3.3,0,5.1C39.6,49.1,38,49.1,36.2,49.1z"/>
	<path class="st0" d="M48.8,44c0,1.7,0,3.3,0,5c-1.7,0-3.3,0-5.1,0c0-1.7,0-3.3,0-5C45.4,44,47,44,48.8,44z"/>
</g>
</svg>
