<?xml version="1.0" encoding="utf-8"?>
<!-- Generator: Adobe Illustrator 25.2.0, SVG Export Plug-In . SVG Version: 6.00 Build 0)  -->
<svg version="1.1" id="Capa_1" xmlns="http://www.w3.org/2000/svg" xmlns:xlink="http://www.w3.org/1999/xlink" x="0px" y="0px"
	 viewBox="0 0 85 85" style="enable-background:new 0 0 85 85;" xml:space="preserve">
<style type="text/css">
	.st0{fill:#FFC700;}
</style>
<g>
	<g id="XMLID_1844_">
		<path id="XMLID_1845_" class="st0" d="M42.5,27.5c-5,0-9.2,4.1-9.2,9.2c0,1.2,1,2.2,2.2,2.2s2.2-1,2.2-2.2c0-2.6,2.1-4.8,4.8-4.8
			c1.2,0,2.2-1,2.2-2.2S43.7,27.5,42.5,27.5z"/>
		<path id="XMLID_1995_" class="st0" d="M66.6,36.4c0-13.6-11.3-24.5-25-24.1c-12,0.4-22,9.8-23.1,21.7c-0.2,2.4-0.1,4.7,0.3,6.9
			l0,0c0,0,0,0.3,0.2,0.8c0.4,1.7,0.9,3.3,1.6,4.8c2.4,5.7,8,15.3,20.5,25.7c0.8,0.6,1.9,0.6,2.7,0c12.5-10.4,18.1-20,20.5-25.7
			c0.7-1.5,1.2-3.1,1.6-4.8c0.1-0.5,0.2-0.8,0.2-0.8l0,0C66.5,39.5,66.6,38,66.6,36.4z M42.5,51.3c-8.1,0-14.7-6.6-14.7-14.7
			c0-8.1,6.6-14.7,14.7-14.7s14.7,6.6,14.7,14.7S50.6,51.3,42.5,51.3z"/>
	</g>
</g>
</svg>
