<?xml version="1.0" encoding="utf-8"?>
<!-- Generator: Adobe Illustrator 15.0.0, SVG Export Plug-In . SVG Version: 6.00 Build 0)  -->
<!DOCTYPE svg PUBLIC "-//W3C//DTD SVG 1.1//EN" "http://www.w3.org/Graphics/SVG/1.1/DTD/svg11.dtd">
<svg version="1.1" id="Шар_1" xmlns="http://www.w3.org/2000/svg" xmlns:xlink="http://www.w3.org/1999/xlink" x="0px" y="0px"
	 width="384.758px" height="66.729px" viewBox="0 0 384.758 66.729" enable-background="new 0 0 384.758 66.729"
	 xml:space="preserve">
<linearGradient id="SVGID_1_" gradientUnits="userSpaceOnUse" x1="52.5894" y1="16.7854" x2="52.5894" y2="66.7292">
	<stop  offset="0" style="stop-color:#FFFFFF"/>
	<stop  offset="1" style="stop-color:#CCCCCC"/>
</linearGradient>
<path fill="url(#SVGID_1_)" d="M102.152,28.539c-3.57-7.768-9.877-11.65-18.92-11.65h-1.113c-5.403,0-10.052,1.6-13.947,4.8
	c-3.022,2.952-5.123,6.509-6.313,10.663c0.05-0.581,0.084-1.176,0.084-1.793v-1.113c0-1.367-0.232-2.793-0.696-4.277
	c-2.249-5.519-7.142-8.277-14.677-8.277H32.033V46.61c-0.39-1.323-1.108-2.742-2.158-4.26c-1.739-1.623-3.327-2.48-4.765-2.574
	V39.67c0.092,0,0.359-0.068,0.8-0.208c2.458-1.483,3.687-4.544,3.687-9.183v-1.009c0-3.663-1.264-6.688-3.791-9.078
	c-2.83-2.271-5.925-3.407-9.287-3.407H0.625v49.943H16.52c1.577,0,3.339-0.267,5.287-0.8c5.572-1.779,8.975-4.946,10.227-9.484
	v10.284h7.965V44.99h0.104c8.092,13.682,12.347,20.927,12.765,21.738h9.078l-12.87-21.842c1.507-0.188,2.805-0.452,3.896-0.801
	c4.073-1.563,6.757-4.154,8.057-7.771c-0.218,1.56-0.333,3.185-0.333,4.885v1.01c0,3.595,0.568,7.152,1.704,10.678
	c3.362,9.229,10.005,13.843,19.929,13.843h0.591c6.492,0,11.674-2.063,15.547-6.19c4.057-4.869,6.086-11.049,6.086-18.538v-1.287
	C104.552,36.376,103.751,32.318,102.152,28.539z M8.625,24.783h7.478c0.696,0,1.392,0.093,2.087,0.277
	c2.272,0.813,3.409,2.342,3.409,4.591c0,3.408-1.797,5.113-5.391,5.113H8.625V24.783z M24.415,53.754
	c-1.043,3.315-3.478,4.975-7.304,4.975H8.625V44.747h8.173c0.951,0,1.89,0.104,2.817,0.313c3.315,1.043,4.974,3.27,4.974,6.678
	C24.589,51.969,24.53,52.642,24.415,53.754z M53.667,33.025c-1.043,2.527-3.142,3.791-6.295,3.791h-7.373V24.852h7.373
	c0.672,0,1.345,0.068,2.018,0.208c3.061,0.813,4.591,2.735,4.591,5.773C53.979,31.229,53.875,31.959,53.667,33.025z M95.684,48.189
	c-2.273,7.049-6.597,10.573-12.973,10.573c-3.432,0-6.319-1.031-8.661-3.096c-3.594-3.455-5.391-8.081-5.391-13.877
	c0-2.317,0.371-4.638,1.113-6.956c2.365-6.653,6.62-9.981,12.765-9.981c3.037,0,5.692,0.835,7.964,2.504
	c4.058,3.386,6.087,8.196,6.087,14.435C96.588,43.877,96.286,46.01,95.684,48.189z"/>
<g>
	<linearGradient id="SVGID_2_" gradientUnits="userSpaceOnUse" x1="114.5493" y1="66.7278" x2="114.5493" y2="16.7839">
		<stop  offset="0" style="stop-color:#FFC700"/>
		<stop  offset="1" style="stop-color:#FFFF00"/>
	</linearGradient>
	<path fill="url(#SVGID_2_)" d="M107.699,56.746c5.982,1.321,10.712,1.981,14.19,1.981c2.527,0,4.429-0.997,5.704-2.991
		c0.394-0.765,0.591-1.564,0.591-2.399V53.06c0-2.875-1.901-5.218-5.704-7.025c-6.585-2.04-10.712-4.104-12.382-6.191
		c-1.6-1.97-2.399-4.497-2.399-7.582v-1.183c0-9.53,4.498-14.295,13.495-14.295h-11.447l-8.833,49.944h20.385
		c-6.33,0-10.864-0.639-13.6-1.913V56.746z"/>
	<linearGradient id="SVGID_3_" gradientUnits="userSpaceOnUse" x1="128.9727" y1="66.7278" x2="128.9727" y2="16.7839">
		<stop  offset="0" style="stop-color:#FFC700"/>
		<stop  offset="1" style="stop-color:#FFFF00"/>
	</linearGradient>
	<path fill="url(#SVGID_3_)" d="M122.689,16.783c5.588,0,9.912,0.638,12.974,1.912v8.069c-4.197-1.322-8.893-1.981-14.087-1.981
		c-3.084,0-5.112,1.367-6.086,4.104c-0.14,0.277-0.209,0.708-0.209,1.286v0.384c0,3.014,2.099,5.414,6.295,7.198
		c6.168,2.019,10.365,5.021,12.591,9.009c0.997,1.925,1.496,3.779,1.496,5.564v1.601c0,5.564-1.635,9.264-4.904,11.095
		c-2.203,1.137-4.823,1.704-7.86,1.704h10.931l8.834-49.944H122.689z"/>
</g>
<linearGradient id="SVGID_4_" gradientUnits="userSpaceOnUse" x1="192.4995" y1="16.887" x2="192.4995" y2="66.7292">
	<stop  offset="0" style="stop-color:#FFFFFF"/>
	<stop  offset="1" style="stop-color:#CCCCCC"/>
</linearGradient>
<path fill="url(#SVGID_4_)" d="M242.337,30.556v-1.113c0-1.367-0.231-2.793-0.694-4.277c-2.25-5.519-7.143-8.277-14.678-8.277
	h-14.529h-0.009h-7.989v31.197c0,1.646-0.256,3.143-0.767,4.485c-1.577,4.127-4.638,6.191-9.183,6.191
	c-1.391,0-2.921-0.302-4.59-0.904c-3.595-2.086-5.392-5.379-5.392-9.877V16.887h-7.956h-0.009h-7.96v19.929h-17.955V16.887h-7.964
	v49.84h7.964V44.781h17.955v21.946h7.969V52.924c0.022,1.537,0.409,3.181,1.174,4.936c2.806,5.913,8.196,8.869,16.172,8.869h1.184
	c5.82,0,10.41-1.728,13.773-5.183c2.34-2.864,3.525-5.762,3.571-8.692v13.875h7.966V44.99h0.104
	c8.092,13.682,12.348,20.927,12.765,21.738h9.077l-12.868-21.842c1.507-0.188,2.806-0.452,3.896-0.801
	C239.348,41.79,242.337,37.281,242.337,30.556z M227.766,36.816h-7.375V24.852h7.375c0.672,0,1.344,0.068,2.018,0.208
	c3.063,0.813,4.592,2.735,4.592,5.773c0,0.396-0.104,1.125-0.313,2.19C233.018,35.553,230.917,36.816,227.766,36.816z"/>
<linearGradient id="SVGID_5_" gradientUnits="userSpaceOnUse" x1="262.2236" y1="16.887" x2="262.2236" y2="66.7273">
	<stop  offset="0" style="stop-color:#FFFFFF"/>
	<stop  offset="1" style="stop-color:#CCCCCC"/>
</linearGradient>
<path fill="url(#SVGID_5_)" d="M266.119,16.887c0.139,0,0.893,2.283,2.261,6.852c7.304,22.654,11.884,36.983,13.738,42.988h-0.104
	c-4.174-0.068-6.793-0.104-7.859-0.104c-0.068-0.116-1.393-4.093-3.965-11.931h-15.931c-1.321,4.082-2.644,8.094-3.965,12.034
	h-7.965v-0.104c8.092-25.391,13.401-41.969,15.93-49.735L266.119,16.887L266.119,16.887z M262.119,26.139
	c-0.069,0.439-2.029,7.304-5.878,20.59h11.965c-3.851-13.286-5.81-20.148-5.878-20.59H262.119z"/>
<g>
	<linearGradient id="SVGID_6_" gradientUnits="userSpaceOnUse" x1="333.4336" y1="33.7737" x2="333.4336" y2="2.441406e-004">
		<stop  offset="0" style="stop-color:#FFC700"/>
		<stop  offset="1" style="stop-color:#FFFF00"/>
	</linearGradient>
	<path fill="url(#SVGID_6_)" d="M282.109,0v33.773h102.647V0H282.109z M304.705,26.457h-3.646l-5.557-8.402h-0.042
		c-0.806,1.001-1.207,1.563-1.207,1.684v6.721h-3.212V6.356h3.212v8.811c4.265-5.473,6.533-8.408,6.806-8.811h3.646l-7.197,9.608
		v0.084L304.705,26.457z M310.217,26.459h-3.212V6.356h3.212V26.459z M324.205,9.568h-8.039V14.8h8.039v3.213h-8.039v5.232h8.039
		v3.212h-11.251V6.356h11.251V9.568z M333.942,26.459h-3.186c-0.047,0-0.3-0.926-0.758-2.777
		c-2.759-10.559-4.261-16.335-4.503-17.326h3.17c0.057,0,0.258,0.697,0.604,2.09c1.881,7.063,2.885,10.883,3.018,11.463h0.084
		c0.131-0.608,1.322-5.125,3.577-13.553h3.213C338.929,7.347,337.188,14.047,333.942,26.459z M344.027,24.776
		c0,0.907-0.521,1.474-1.558,1.698h-0.28c-0.796,0-1.349-0.436-1.655-1.306c-0.027-0.158-0.042-0.29-0.042-0.394v-0.14
		c0-0.907,0.52-1.474,1.558-1.697h0.28c0.87,0,1.426,0.458,1.67,1.375c0.02,0.094,0.027,0.201,0.027,0.323V24.776z M360.724,20.792
		c0,1.207-0.479,2.398-1.444,3.577c-1.354,1.395-3.207,2.09-5.556,2.09h-0.478c-3.218,0-5.393-1.191-6.522-3.577
		c-0.317-0.729-0.478-1.411-0.478-2.048l-0.002-14.479h3.213v12.542c0,1.813,0.725,3.144,2.174,3.983
		c0.674,0.243,1.291,0.365,1.853,0.365c1.834,0,3.067-0.833,3.705-2.498c0.204-0.542,0.309-1.146,0.309-1.811V6.356h3.227V20.792z
		 M378.187,26.459c-1.685-0.027-2.741-0.042-3.172-0.042c-0.026-0.047-0.562-1.65-1.6-4.813h-6.425
		c-0.533,1.646-1.066,3.265-1.602,4.854h-3.211v-0.042c3.265-10.241,5.404-16.929,6.424-20.062h3.174
		c0.057,0,0.358,0.921,0.911,2.765c2.945,9.137,4.793,14.917,5.541,17.339H378.187z"/>
	<linearGradient id="SVGID_7_" gradientUnits="userSpaceOnUse" x1="370.2051" y1="18.3928" x2="370.2051" y2="10.0872">
		<stop  offset="0" style="stop-color:#FFC700"/>
		<stop  offset="1" style="stop-color:#FFFF00"/>
	</linearGradient>
	<path fill="url(#SVGID_7_)" d="M370.163,10.087c-0.028,0.179-0.819,2.946-2.371,8.306h4.826c-1.554-5.358-2.343-8.127-2.371-8.306
		H370.163z"/>
</g>
</svg>
